

<svg xmlns="http://www.w3.org/2000/svg" viewBox="0 0 627 894" fill="none">
    <path fill-rule="evenodd" clip-rule="evenodd" d="M313.5 0C140.5 0 0 140.5 0 313.5C0 486.5 140.5 627 313.5 627C486.5 627 627 486.5 627 313.5C627 140.5 486.5 0 313.5 0ZM313.5 573.5C169.5 573.5 54 458 54 313.5C54 169.5 169.5 54 313.5 54C458 54 573.5 169.5 573.5 313.5C573.5 458 458 573.5 313.5 573.5ZM313.5 189.5C258.5 189.5 213 235 213 290C213 345 258.5 390.5 313.5 390.5C368.5 390.5 414 345 414 290C414 235 368.5 189.5 313.5 189.5ZM313.5 486.5C258.5 486.5 213 532 213 587C213 642 258.5 687.5 313.5 687.5C368.5 687.5 414 642 414 587C414 532 368.5 486.5 313.5 486.5Z" fill="#FFC107"/>
</svg>
